#!OML:ASF I:\Actors\actors\Patient Classification 2\Patient 1\Session 1\actor1.ASF
:FULLY-SPECIFIED
:DEGREES
444
root -0.343547 18.974 5.57281 21.1286 1.43234 -1.31508
lowerback 27.0154 -4.64924 -2.92683
upperback 4.84991 -6.35414 3.67449
thorax -8.69841 -2.87711 7.91913
lowerneck -3.4194 7.38472 13.6648
upperneck -0.88897 9.48997 -12.2424
head 1.55195 4.64431 -5.58748
rclavicle 8.18993e-014 -5.1684e-014
rhumerus 26.1465 53.7623 -36.1347
rradius 86.335
rwrist -3.65307
rhand -11.7869 -55.541
rfingers 7.12502
rthumb 14.2624 -85.0312
lclavicle 8.18993e-014 -5.1684e-014
lhumerus 1.81065 -3.69281 75.6022
lradius 55.3872
lwrist -9.54026
lhand -18.7383 -31.0493
lfingers 7.12502
lthumb 7.55775 -1.20436
rfemur -15.3187 -2.89104 15.0849
rtibia -3.89618e-014
rfoot -13.3964 -15.5537
rtoes -5.15741
lfemur -31.7854 -0.543508 -13.5424
ltibia 26.3537
lfoot -15.8921 7.34146
ltoes -55.2809
445
root -0.370705 18.973 5.56922 21.1509 1.2203 -1.26745
lowerback 27.0077 -4.64238 -2.89621
upperback 4.82095 -6.33691 3.68277
thorax -8.73234 -2.86755 7.90746
lowerneck -2.62317 7.33185 14.5155
upperneck -2.06944 9.43557 -13.4496
head 1.17878 4.63394 -6.15185
rclavicle -1.07344e-014 -9.54166e-015
rhumerus 27.1928 53.2486 -35.2487
rradius 86.6415
rwrist -3.75187
rhand -10.3788 -55.4872
rfingers 7.12502
rthumb 15.6188 -84.8766
lclavicle -1.07344e-014 -9.54166e-015
lhumerus 0.974656 -3.72487 75.5293
lradius 55.9143
lwrist -9.34524
lhand -18.5689 -30.9759
lfingers 7.12502
lthumb 7.72123 -1.13685
rfemur -15.4089 -2.68228 15.0593
rtibia 7.95139e-015
rfoot -13.3464 -15.6255
rtoes -5.30222
lfemur -31.6751 -0.60543 -13.4698
ltibia 26.1918
lfoot -16.0153 7.57222
ltoes -55.1671
446
root -0.397833 18.9738 5.56626 21.1891 1.01134 -1.18116
lowerback 26.9892 -4.63826 -2.91414
upperback 4.78808 -6.33719 3.68607
thorax -8.75776 -2.86548 7.92238
lowerneck -2.62323 7.38399 14.6907
upperneck -2.16627 9.49779 -13.6891
head 1.18151 4.66385 -6.25217
rclavicle -1.98785e-015 -4.77083e-015
rhumerus 28.2537 52.7587 -34.4164
rradius 86.853
rwrist -3.80011
rhand -8.3969 -55.0705
rfingers 7.12502
rthumb 17.5269 -84.3004
lclavicle -1.98785e-015 -4.77083e-015
lhumerus 0.0902369 -3.82201 75.3917
lradius 56.5342
lwrist -9.14018
lhand -17.6173 -29.4464
lfingers 7.12502
lthumb 8.63968 0.356805
rfemur -15.5131 -2.49414 14.9912
rtibia -2.06736e-014
rfoot -13.2843 -15.693
rtoes -5.42166
lfemur -31.5868 -0.585311 -13.4722
ltibia 26.0242
lfoot -16.0353 7.71619
ltoes -55.1305
447
root -0.425637 18.9751 5.5638 21.2087 0.810563 -1.04813
lowerback 27.0058 -4.6352 -2.97623
upperback 4.74198 -6.35265 3.67523
thorax -8.81045 -2.86752 7.95646
lowerneck -2.65839 7.48494 14.8291
upperneck -2.12339 9.63196 -13.9221
head 1.23923 4.72878 -6.33587
rclavicle 9.93923e-015 -3.97569e-015
rhumerus 29.2326 52.299 -33.7123
rradius 86.9718
rwrist -3.90727
rhand -7.26527 -54.5709
rfingers 7.12502
rthumb 18.6157 -83.7002
lclavicle 9.93923e-015 -3.97569e-015
lhumerus -0.800499 -3.95024 75.2358
lradius 57.1737
lwrist -8.83358
lhand -17.6712 -29.8288
lfingers 7.12502
lthumb 8.58769 -0.0234764
rfemur -15.5888 -2.33018 14.8764
rtibia -1.27222e-014
rfoot -13.2282 -15.7528
rtoes -5.5789
lfemur -31.4855 -0.491712 -13.5605
ltibia 25.8539
lfoot -15.9746 7.7779
ltoes -55.1698
448
root -0.452753 18.9759 5.56056 21.2087 0.62263 -0.92619
lowerback 27.0948 -4.63177 -2.96875
upperback 4.67259 -6.34975 3.65028
thorax -8.93857 -2.8577 7.93963
lowerneck -2.76553 7.56144 15.0213
upperneck -1.99222 9.72893 -14.1796
head 1.33362 4.772 -6.43352
rclavicle 3.69739e-014 -1.19271e-014
rhumerus 30.1122 51.8539 -33.0524
rradius 87.03
rwrist -4.13372
rhand -7.06629 -53.9272
rfingers 7.12502
rthumb 18.8071 -83.038
lclavicle 3.69739e-014 -1.19271e-014
lhumerus -1.73615 -4.09372 75.1329
lradius 57.8578
lwrist -8.46793
lhand -17.6662 -30.0082
lfingers 7.12502
lthumb 8.59243 -0.203019
rfemur -15.6431 -2.17205 14.7767
rtibia -1.27222e-014
rfoot -13.1344 -15.8346
rtoes -6.11394
lfemur -31.373 -0.436156 -13.6321
ltibia 25.7001
lfoot -15.9132 7.89761
ltoes -55.2553
449
root -0.478923 18.976 5.55574 21.2349 0.424659 -0.872997
lowerback 27.1542 -4.62227 -2.89566
upperback 4.61421 -6.31829 3.64707
thorax -9.04824 -2.83752 7.89662
lowerneck -2.93487 7.60963 15.1575
upperneck -1.84564 9.78113 -14.3523
head 1.42869 4.79085 -6.49612
rclavicle -2.82274e-014 5.56597e-015
rhumerus 31.1647 51.4742 -32.1673
rradius 87.0539
rwrist -4.11658
rhand -7.04924 -53.8418
rfingers 7.12502
rthumb 18.8235 -82.951
lclavicle -2.82274e-014 5.56597e-015
lhumerus -2.65598 -4.30242 75.0459
lradius 58.5334
lwrist -8.04129
lhand -17.8021 -30.2278
lfingers 7.12502
lthumb 8.46134 -0.417267
rfemur -15.7412 -1.98223 14.7397
rtibia 1.27222e-014
rfoot -13.0434 -15.9086
rtoes -6.44771
lfemur -31.3063 -0.391484 -13.6221
ltibia 25.5742
lfoot -15.8681 8.04705
ltoes -55.3193
450
root -0.504874 18.9742 5.55111 21.2716 0.205654 -0.834767
lowerback 27.16 -4.60607 -2.85719
upperback 4.57965 -6.28676 3.65523
thorax -9.09835 -2.82045 7.87785
lowerneck -3.12198 7.67104 15.225
upperneck -1.67521 9.85174 -14.4579
head 1.52911 4.81858 -6.52439
rclavicle -1.98785e-014 -1.19271e-015
rhumerus 32.4197 51.1409 -31.1622
rradius 87.0072
rwrist -4.00966
rhand -7.07195 -54.2453
rfingers 7.12502
rthumb 18.8016 -83.3566
lclavicle -1.98785e-014 -1.19271e-015
lhumerus -3.55363 -4.54099 74.9365
lradius 59.1626
lwrist -7.59168
lhand -18.0493 -30.6383
lfingers 7.12502
lthumb 8.22274 -0.818338
rfemur -15.8543 -1.77032 14.7037
rtibia -6.36111e-015
rfoot -12.9922 -15.9473
rtoes -6.23091
lfemur -31.2648 -0.208284 -13.6425
ltibia 25.4638
lfoot -15.8181 8.07463
ltoes -55.3603
451
root -0.529484 18.9716 5.54555 21.3442 0.00263944 -0.783515
lowerback 27.1282 -4.60225 -2.79295
upperback 4.52751 -6.26542 3.64769
thorax -9.15278 -2.80858 7.82688
lowerneck -3.22508 7.70732 15.3686
upperneck -1.55381 9.8952 -14.6533
head 1.60687 4.83492 -6.59911
rclavicle 7.59357e-014 -2.94201e-014
rhumerus 33.753 50.6465 -29.9436
rradius 87.0333
rwrist -4.31826
rhand -7.03119 -54.4014
rfingers 7.12502
rthumb 18.8408 -83.5089
lclavicle 7.59357e-014 -2.94201e-014
lhumerus -4.44407 -4.79042 74.8447
lradius 59.7148
lwrist -7.19632
lhand -18.3239 -31.0123
lfingers 7.12502
lthumb 7.95769 -1.18208
rfemur -16.0033 -1.58312 14.6566
rtibia -4.77083e-014
rfoot -12.9305 -15.9855
rtoes -6.14465
lfemur -31.2764 0.0103232 -13.6936
ltibia 25.3561
lfoot -15.7751 8.07199
ltoes -55.4333
452
root -0.554923 18.9703 5.5394 21.4229 -0.155378 -0.716322
lowerback 27.0872 -4.61337 -2.67802
upperback 4.47811 -6.2498 3.62854
thorax -9.20569 -2.80106 7.73424
lowerneck -3.10444 7.72702 15.6881
upperneck -1.70137 9.92552 -15.1083
head 1.59281 4.85164 -6.79866
rclavicle -4.01545e-014 -2.78299e-015
rhumerus 35.0532 49.953 -28.505
rradius 87.2318
rwrist -4.84751
rhand -6.93366 -54.4096
rfingers 7.12502
rthumb 18.9346 -83.508
lclavicle -4.01545e-014 -2.78299e-015
lhumerus -5.2684 -5.11145 74.749
lradius 60.2431
lwrist -6.80589
lhand -18.5841 -31.2838
lfingers 7.12502
lthumb 7.70662 -1.44419
rfemur -16.1521 -1.44239 14.6153
rtibia 2.62396e-014
rfoot -12.8553 -16.0441
rtoes -6.38523
lfemur -31.2919 0.0151618 -13.6857
ltibia 25.2456
lfoot -15.7908 8.21942
ltoes -55.427
453
root -0.582776 18.9687 5.5343 21.4622 -0.333581 -0.628421
lowerback 27.0628 -4.602 -2.62081
upperback 4.45897 -6.2207 3.61787
thorax -9.22691 -2.78781 7.67915
lowerneck -3.08294 7.7567 15.8308
upperneck -1.80409 9.96264 -15.4304
head 1.5926 4.86955 -6.92324
rclavicle 5.725e-014 -1.66979e-014
rhumerus 35.6212 49.3289 -28.2195
rradius 87.1947
rwrist -4.72684
rhand -6.65228 -54.2833
rfingers 7.12502
rthumb 19.2052 -83.355
lclavicle 5.725e-014 -1.66979e-014
lhumerus -6.10688 -5.4782 74.6439
lradius 60.883
lwrist -6.34827
lhand -18.6637 -31.524
lfingers 7.12502
lthumb 7.62977 -1.68165
rfemur -18.0058 -1.31709 14.5998
rtibia 3.52213
rfoot -14.1776 -14.9636
rtoes -6.66429
lfemur -31.2504 -0.0458512 -13.6751
ltibia 25.1316
lfoot -15.8168 8.4259
ltoes -55.391
454
root -0.609571 18.9667 5.53003 21.4995 -0.532361 -0.539664
lowerback 27.0669 -4.57245 -2.55954
upperback 4.41476 -6.16663 3.61342
thorax -9.29413 -2.7599 7.62639
lowerneck -3.20115 7.75294 15.8325
upperneck -1.77222 9.94743 -15.5948
head 1.62947 4.8567 -6.97139
rclavicle 1.0297e-013 -5.24792e-014
rhumerus 35.3576 48.8352 -29.2459
rradius 86.8523
rwrist -3.96888
rhand -6.09962 -54.0291
rfingers 7.12502
rthumb 19.7366 -83.0472
lclavicle 1.0297e-013 -5.24792e-014
lhumerus -6.99599 -5.84882 74.6209
lradius 61.5181
lwrist -5.90838
lhand -18.5782 -31.6567
lfingers 7.12502
lthumb 7.71231 -1.81733
rfemur -18.87 -1.15607 14.5377
rtibia 5.05663
rfoot -14.7376 -14.5252
rtoes -6.87467
lfemur -31.1908 0.0166525 -13.7091
ltibia 24.9837
lfoot -15.7928 8.54093
ltoes -55.4098
455
root -0.635791 18.9651 5.52653 21.5172 -0.690356 -0.450982
lowerback 27.119 -4.5717 -2.43364
upperback 4.33509 -6.13302 3.58926
thorax -9.43264 -2.7391 7.52934
lowerneck -3.33443 7.73336 15.8521
upperneck -1.64888 9.91472 -15.713
head 1.69048 4.83404 -7.00701
rclavicle 1.03368e-014 4.37326e-015
rhumerus 35.0282 48.5718 -30.218
rradius 86.5636
rwrist -3.24464
rhand -5.74379 -53.9072
rfingers 7.12502
rthumb 20.0786 -82.8897
lclavicle 1.03368e-014 4.37326e-015
lhumerus -7.91118 -6.21217 74.6238
lradius 62.0496
lwrist -5.52544
lhand -18.5628 -31.8532
lfingers 7.12502
lthumb 7.72718 -2.01437
rfemur -19.5106 -1.02745 14.4816
rtibia 6.21307
rfoot -15.1612 -14.1956
rtoes -7.08922
lfemur -31.1294 0.128095 -13.7593
ltibia 24.8639
lfoot -15.783 8.57068
ltoes -55.4632
456
root -0.679334 18.9663 5.53189 21.4835 -0.750089 -0.338011
lowerback 27.0793 -4.55808 -2.49142
upperback 4.32211 -6.12937 3.61651
thorax -9.41812 -2.7361 7.58883
lowerneck -3.43844 7.73682 15.8509
upperneck -1.56104 9.91645 -15.8713
head 1.74337 4.82963 -7.05132
rclavicle -6.0033e-014 5.1684e-014
rhumerus 34.4614 48.5771 -31.3008
rradius 86.4077
rwrist -2.36251
rhand -5.69006 -53.8727
rfingers 7.12502
rthumb 20.1303 -82.8498
lclavicle -6.0033e-014 5.1684e-014
lhumerus -8.83007 -6.55409 74.614
lradius 62.6155
lwrist -5.21424
lhand -18.7686 -32.2293
lfingers 7.12502
lthumb 7.52848 -2.3833
rfemur -19.9074 -0.960125 14.5123
rtibia 7.16017
rfoot -15.5837 -13.8782
rtoes -7.11084
lfemur -30.9987 0.46513 -13.8355
ltibia 24.7699
lfoot -15.7077 8.28382
ltoes -55.5607
457
root -0.700923 18.9615 5.52332 21.5867 -0.940846 -0.307562
lowerback 27.011 -4.55049 -2.30618
upperback 4.2765 -6.06552 3.63908
thorax -9.46134 -2.70889 7.4846
lowerneck -3.5658 7.7197 15.7556
upperneck -1.59005 9.88175 -16.055
head 1.75754 4.80678 -7.09247
rclavicle -4.45278e-014 1.19271e-014
rhumerus 35.8612 47.8847 -30.349
rradius 86.0301
rwrist -3.07346
rhand -5.78794 -54.1652
rfingers 7.12502
rthumb 20.0362 -83.1522
lclavicle -4.45278e-014 1.19271e-014
lhumerus -9.70852 -6.9325 74.6382
lradius 63.2314
lwrist -4.89316
lhand -19.1427 -32.5173
lfingers 7.12502
lthumb 7.16742 -2.65863
rfemur -20.5358 -0.794646 14.47
rtibia 7.99352
rfoot -15.8123 -13.7105
rtoes -7.27241
lfemur -31.0648 0.433527 -13.7854
ltibia 24.6961
lfoot -15.7311 8.48614
ltoes -55.5862
